# xmcd
#
# Track frame offsets:
#	150
#	15495
#	34421
#	50971
#	63816
#	78144
#	94033
#	109107
#	125846
#	136392
#	150999
#	162910
#	177322
#	188056
#	201611
#	214880
#
# Disc length: 3056 seconds
#
# Revision: 0
# Processed by: cddbd v1.5.1PL0 Copyright (c) Steve Scherf et al.
# Submitted via: dBpowerAMP V4.0
#
DISCID=e00bee10
DTITLE=Various Artist - Drew's Famous Kids Pop Country Hits
DYEAR=1900
DGENRE=Country
TTITLE0=Achy Breaky Heart
TTITLE1=I Hope You Dance
TTITLE2=Elvira
TTITLE3=This Kiss
TTITLE4=God Bless The USA
TTITLE5=The Gambler
TTITLE6=Boot Scootin' Boogie
TTITLE7=Wide Open Spaces
TTITLE8=King Of The Road
TTITLE9=You're Still The One
TTITLE10=Mammas Don't Let Your Babies Grow Up To Be Cowboys
TTITLE11=Thank God I'm A Country Boy
TTITLE12=Crazy
TTITLE13=American Child
TTITLE14=Up
TTITLE15=Music In Their Soul Country In Their Heart
EXTD=
EXTT0=
EXTT1=
EXTT2=
EXTT3=
EXTT4=
EXTT5=
EXTT6=
EXTT7=
EXTT8=
EXTT9=
EXTT10=
EXTT11=
EXTT12=
EXTT13=
EXTT14=
EXTT15=
PLAYORDER=
